PathFileType	4	(X/Y/Z)	Patient4_TMGait_0pt3_03_right_01.trc.trc
DataRate	CameraRate	NumFrames	NumMarkers	Units	OrigDataRate	OrigDataStartFrame	OrigNumFrames
56.000000000000	56.000000000000	5	33	mm	56.000000000000	36	       141
Frame#	Time	Sacral			L.Shoulder			Chest			R.Shoulder			Neck			R.ASIS			L.ASIS			R.Thigh.Superior			R.Thigh.Lateral			R.Thigh.Inferior			R.Patella			L.Thigh.Superior			L.Thigh.Lateral			L.Thigh.Inferior			L.Patella			L.Shank.Superior			L.Shank.Lateral			L.Shank.Inferior			R.Shank.Superior			R.Shank.Lateral			R.Shank.Inferior			R.Heel			R.Midfoot.Superior			R.Midfoot.Lateral			R.Toe			L.Heel			L.Midfoot.Lateral			L.Midfoot.Superior			L.Toe			L.Elbow			L.Wrist			R.Elbow			R.Wrist			
		X1	Y1	Z1	X2	Y2	Z2	X3	Y3	Z3	X4	Y4	Z4	X5	Y5	Z5	X6	Y6	Z6	X7	Y7	Z7	X8	Y8	Z8	X9	Y9	Z9	X10	Y10	Z10	X11	Y11	Z11	X12	Y12	Z12	X13	Y13	Z13	X14	Y14	Z14	X15	Y15	Z15	X16	Y16	Z16	X17	Y17	Z17	X18	Y18	Z18	X19	Y19	Z19	X20	Y20	Z20	X21	Y21	Z21	X22	Y22	Z22	X23	Y23	Z23	X24	Y24	Z24	X25	Y25	Z25	X26	Y26	Z26	X27	Y27	Z27	X28	Y28	Z28	X29	Y29	Z29	X30	Y30	Z30	X31	Y31	Z31	X32	Y32	Z32	X33	Y33	Z33	

36	2.465000000000	750.093153646529	1013.168117221322	451.732622584407	1005.570984276041	1427.879184241136	320.807358453233	1062.048752136777	1344.851259205969	496.695924526359	952.696922440288	1427.047336512064	651.053295969505	975.046115679884	1487.929850621370	473.729011674542	956.807056255735	935.487237956454	604.656604546328	983.067177185174	953.497768281523	329.806606554732	1014.526180305865	746.554969198868	570.283356463394	940.295598421953	632.177117757094	626.673491944926	1024.536814038433	586.155720503428	548.449906567971	1032.904986195988	498.709023733020	555.758964005739	987.835904026944	726.327257214048	358.063934939204	884.492010944128	625.326654604042	286.225671457530	945.342658865778	534.612203279307	356.647067658986	931.976560880952	461.979086927216	361.647160024154	884.626901318253	401.012521077330	348.978576916609	770.141262508100	315.383560571031	289.240427797954	787.203991872293	192.028808054762	357.457165357517	1006.744060480961	407.947354877580	564.640162309556	938.868193554411	304.294632584917	631.185340661303	982.057923911553	208.917163749744	569.179122311541	849.686395686427	42.138821786311	551.880964943081	1023.259016105743	98.160506687058	573.175329107522	939.302403587654	37.109276553338	619.115566311965	1144.982721600430	48.990636235626	590.059302611119	626.372037866132	57.062459799693	387.017605922442	703.111826537186	44.287494189776	311.059269836626	791.899201377903	98.836716558579	339.817732441964	914.388396230292	38.227906390305	316.895864307567	1069.426231488695	1093.023829544259	184.923422325485	1306.261947454978	1026.952617016965	263.731543888258	789.815200324281	1110.324691918778	729.283722419428	806.729500634758	849.461575426863	733.913310423221	
37	2.482857142857	751.186353087172	1013.873572792621	456.460998607147	1004.963487795078	1428.981806112825	323.901435856585	1062.777189375864	1346.071969939810	499.451812570862	954.123344067470	1428.071285774616	654.439522717238	975.167201943267	1488.975923004898	476.970451547814	958.820624084664	936.251889849355	608.020846572068	983.324285439027	954.365447592333	333.019394790789	1014.693025942189	745.989750709612	573.436831818914	939.234386804835	632.153882579766	629.383830058582	1022.696635339977	585.517632378059	550.731825527435	1030.198358933014	498.171363614347	557.390722987304	990.003745938578	727.647216343024	360.769934891022	887.505175311522	625.847113107234	289.012050899594	950.129168616752	535.163966691292	358.546385512047	937.239253427821	461.385615994388	362.655616674231	887.843890356591	401.323496316530	350.235174814873	771.116108117486	318.742687716994	290.744889261195	786.265568773097	194.248130684581	357.358716292772	1003.595611156828	407.606461421561	565.950869495352	935.398422575434	304.047776726446	632.212625241204	977.695273127291	208.694257833758	569.635872752717	844.511405507881	42.210458774933	552.027892185021	1018.173960137034	98.066828178068	573.303828113091	934.162579795433	37.102888835406	619.197022884889	1139.912035454941	48.647072481007	590.157802394683	622.641926117509	63.206589175035	386.738641426688	698.831954956223	47.715577598408	310.934850588889	789.049453768696	99.905661390522	339.237684048894	909.347506516028	37.705602246900	316.834634100026	1065.169819821258	1092.772302075171	188.478404894830	1298.752473626335	1014.974318210841	267.253894905531	795.212283148893	1109.598242237454	735.477063842756	822.117353230052	849.825379909908	741.214189861449	
38	2.500714285714	752.236396806158	1014.470221668824	461.279631132668	1003.942518557019	1430.052564866590	326.758349117652	1063.353281572196	1347.325790855179	501.912376760413	955.558789659085	1429.076817450587	657.645416193865	975.041016452653	1489.997608320454	480.023822071720	960.920473799697	936.961763582662	611.259542589012	983.453903516184	955.233918685442	336.144425041017	1014.830581446155	745.294740612394	576.416853671397	938.186808544529	632.069943958130	632.014681307295	1020.773268826993	584.809171020039	552.850393606195	1027.380702662020	497.577746473647	558.881177696243	992.872587613452	729.241377707826	363.468758838018	891.755774432786	626.255522081800	291.808780620397	956.530779917628	535.853569246815	360.487922766965	944.227486308670	460.782112072520	363.666324080766	892.632432838848	401.584967555814	351.560628267018	773.550306928560	322.497183915486	292.258824548695	786.260336015758	196.943833200437	357.269091869880	1000.375381036682	407.230969086549	567.152629864033	931.959456279674	303.760414766782	633.222321103962	973.303057654806	208.440109228154	570.008909601991	839.304520663242	42.291088889606	552.141002825057	1013.084220809387	97.922340876801	573.363676274730	928.996302042031	37.109606469522	619.236720707238	1134.831243916517	48.165896584912	590.232528836202	619.462563322969	70.804920327767	386.370532938804	694.906847828374	52.192501053957	310.751404799484	786.709820145948	101.386799015734	338.665947199640	904.242389331822	37.073037469611	316.864425768610	1060.405859044136	1092.463791740523	191.958897326197	1289.926400327159	1001.752385760715	270.124149398091	800.951136459335	1108.962812243196	741.959645245268	837.985837152004	850.653670868788	748.524946043883	
39	2.518571428571	753.217709139181	1014.916637670359	466.165484788281	1002.535536501134	1431.018148784982	329.370534445888	1063.771815219685	1348.535081244180	504.073508008430	957.004846499302	1430.002263540438	660.655473711973	974.682215056793	1490.931296835321	482.880049329164	963.081266602729	937.579891081951	614.363544707036	983.441803779284	956.052153176890	339.199872787451	1015.003587620662	744.508168467272	579.200817894401	937.254444816273	631.920778916127	634.555347336297	1018.900458140331	584.048690583143	554.819157463612	1024.610514097986	496.911516979764	560.265765398528	996.412070669522	731.097534871403	366.205141464670	897.275932357064	626.552467974615	294.614105176657	964.524202270595	536.719361059191	362.529414518334	952.920374753320	460.230158186741	364.753867088038	899.020314258138	401.820035037649	353.001344771688	777.527786849554	326.671602631341	293.776722202047	787.240613251428	200.195279193218	357.233510653417	997.197864839051	406.798010109853	568.266995977328	928.604411639308	303.425725090853	634.206613666631	968.922851322435	208.137918402487	570.314205924174	834.049837522074	42.375284254717	552.222879501572	1007.967057275280	97.740022353425	573.366856406782	923.785941563933	37.126019203593	619.242630404965	1129.721728347300	47.576547550681	590.292803181715	616.943728903713	79.998777388739	385.894273171523	691.435807050326	57.896546405429	310.500959795830	784.925160198581	103.409005102980	338.147469201975	899.070647706630	36.312187043681	317.012278627428	1055.080864543899	1091.993404629101	195.410745863184	1279.633014328087	987.437001768906	272.230010908218	807.159336994208	1108.318672186081	748.713167306658	854.314006727799	851.827228045908	755.762788145384	
40	2.536428571429	754.100485476290	1015.174701238682	471.087967711389	1000.783127272845	1431.802103773692	331.725564313317	1064.030757612193	1349.619389784898	505.928383804683	958.462309312296	1430.789362340313	663.447346359009	974.117398090543	1491.714712085836	485.519189158700	965.269548810437	938.076355754917	617.326526088680	983.276574398651	956.765978597629	342.199310961557	1015.276093040037	743.667677517046	581.797400288129	936.528676902360	631.693579912547	636.995204308656	1017.214582372031	583.251191903381	556.659291599285	1022.058297057462	496.155175482602	561.574949105120	1000.563798728593	733.202065861885	369.031295198288	904.044791475843	626.760390771678	297.435971954593	974.010215386306	537.811988565063	364.738787458474	963.222409781388	459.810722029829	366.008004377637	906.965333792895	402.071442479670	354.607246045346	783.072192333234	331.283526070676	295.300720836201	789.228783982629	204.066574129060	357.295633097647	994.186792871565	406.286269810487	569.307490300522	925.395558987184	303.040390799703	635.149153745189	964.606701497340	207.776834250375	570.562749901251	828.747664850026	42.462316753358	552.277068702784	1002.814356629315	97.535414421054	573.328122625896	918.527729952117	37.148730571051	619.222435675486	1124.576615560345	46.912044724102	590.347361463413	615.197743625616	90.856013681124	385.299464150302	688.533784522019	64.959034984146	310.179927497935	783.740776776913	106.094229371399	337.726766334242	893.865637053814	35.421731721083	317.293772246241	1049.146781011343	1091.258300418618	198.866566216483	1267.732780704929	972.203530531973	273.477630032412	813.945158005024	1107.576045993795	755.690630171151	871.084916170091	853.226393742821	762.850861076056	
